<?xml version="1.0" encoding="UTF-8" standalone="no"?>
<!DOCTYPE svg PUBLIC "-//W3C//DTD SVG 1.1//EN" "http://www.w3.org/Graphics/SVG/1.1/DTD/svg11.dtd">
<svg xmlns="http://www.w3.org/2000/svg" version="1.1" viewBox="0 0 1080 1080" >
<path fill="#ef6500" d="
  M 571.97 163.38
  Q 567.52 161.82 566.88 167.89
  A 0.94 0.94 -83.7 0 1 565.84 168.73
  L 562.69 168.38
  A 0.61 0.61 1.7 0 1 562.15 167.81
  C 561.35 154.47 579.38 154.78 578.68 167.00
  C 578.28 174.10 572.29 181.69 568.32 187.40
  Q 567.73 188.25 568.77 188.25
  L 577.94 188.25
  A 0.63 0.58 -87.3 0 1 578.51 188.93
  L 578.18 192.69
  A 0.55 0.49 -87.0 0 1 577.68 193.20
  L 562.58 192.93
  A 0.88 0.84 85.0 0 1 561.76 192.21
  Q 561.19 189.03 562.15 187.62
  Q 566.08 181.84 571.81 172.56
  Q 574.45 168.29 572.64 164.02
  A 1.18 1.14 87.8 0 0 571.97 163.38
  Z"
/>
<path fill="#ef6500" d="
  M 601.8901 186.6570
  A 7.97 7.97 0.0 0 1 593.3578 194.0219
  L 592.2807 193.9428
  A 7.97 7.97 0.0 0 1 584.9159 185.4105
  L 586.3499 165.8830
  A 7.97 7.97 0.0 0 1 594.8822 158.5181
  L 595.9593 158.5972
  A 7.97 7.97 0.0 0 1 603.3241 167.1295
  L 601.8901 186.6570
  Z
  M 598.0325 166.8419
  A 3.04 3.04 0.0 0 0 595.2233 163.5874
  L 594.8643 163.5611
  A 3.04 3.04 0.0 0 0 591.6098 166.3702
  L 590.1875 185.7381
  A 3.04 3.04 0.0 0 0 592.9967 188.9926
  L 593.3557 189.0189
  A 3.04 3.04 0.0 0 0 596.6102 186.2098
  L 598.0325 166.8419
  Z"
/>
<path fill="#ef6500" d="
  M 504.81 191.67
  L 513.35 190.48
  A 0.62 0.49 -7.5 0 1 514.05 190.90
  L 514.50 195.07
  A 0.63 0.55 -7.0 0 1 513.95 195.69
  L 500.64 197.52
  A 0.82 0.81 82.2 0 1 499.73 196.82
  L 495.10 163.70
  A 0.95 0.95 82.5 0 1 495.92 162.63
  L 509.19 160.89
  A 0.69 0.61 -14.0 0 1 509.90 161.26
  Q 510.40 162.43 510.25 163.75
  A 2.59 1.22 -86.1 0 1 509.00 166.00
  L 501.60 167.03
  A 0.53 0.53 -7.1 0 0 501.14 167.62
  L 502.18 175.83
  A 0.88 0.84 82.5 0 0 503.14 176.60
  L 509.05 175.81
  A 1.01 0.83 -6.3 0 1 510.18 176.55
  L 510.45 180.19
  A 0.59 0.56 -6.1 0 1 509.95 180.78
  L 503.64 181.73
  A 0.55 0.54 -8.0 0 0 503.17 182.34
  L 504.26 191.19
  A 0.54 0.48 82.9 0 0 504.81 191.67
  Z"
/>
<path fill="#ef6500" d="
  M 609.81 170.19
  C 609.93 158.02 626.82 158.73 626.75 169.25
  C 626.70 176.66 618.59 185.13 613.85 190.27
  Q 613.08 191.10 614.24 191.25
  L 623.08 192.35
  A 0.58 0.50 7.9 0 1 623.59 192.93
  L 623.10 196.72
  A 0.61 0.51 7.3 0 1 622.44 197.14
  L 607.06 195.26
  A 0.56 0.55 -85.6 0 1 606.58 194.68
  C 606.68 192.56 606.80 190.92 608.27 189.20
  C 611.55 185.36 625.40 170.91 620.24 167.03
  C 617.23 164.77 614.68 167.62 614.67 170.68
  A 0.63 0.58 85.0 0 1 614.20 171.29
  Q 612.19 171.64 610.28 170.89
  A 0.74 0.73 11.5 0 1 609.81 170.19
  Z"
/>
<path fill="#ef6500" d="
  M 633.44 168.44
  Q 633.40 168.14 633.48 167.90
  A 0.77 0.53 11.7 0 1 634.24 167.58
  C 638.09 168.10 642.23 164.11 644.84 165.72
  A 0.77 0.73 -69.7 0 1 645.17 166.49
  L 639.16 199.57
  A 0.56 0.48 -78.2 0 1 638.57 200.03
  L 634.47 199.17
  A 0.60 0.49 -80.3 0 1 634.09 198.51
  L 638.43 172.99
  A 0.62 0.54 -79.1 0 0 638.03 172.30
  L 634.31 171.46
  A 1.34 0.35 7.9 0 1 633.45 171.10
  Q 632.54 170.04 633.44 168.44
  Z"
/>
<path fill="#ef6500" d="
  M 472.06 175.19
  C 470.75 168.52 478.47 164.95 484.02 167.06
  C 488.05 168.58 488.71 172.68 489.14 176.43
  A 0.54 0.54 82.7 0 1 488.69 177.02
  L 484.81 177.62
  A 0.60 0.59 76.3 0 1 484.15 177.21
  C 483.31 174.68 483.41 169.68 478.87 171.68
  Q 476.88 172.55 477.31 174.67
  L 481.25 194.27
  Q 481.65 196.24 483.67 196.25
  Q 488.06 196.29 486.42 189.39
  A 1.66 1.55 77.9 0 1 487.61 187.40
  L 489.75 187.00
  A 2.60 1.15 70.8 0 1 491.56 188.94
  C 496.21 201.15 478.60 207.54 475.72 193.41
  Q 473.86 184.30 472.06 175.19
  Z"
/>
<path fill="#ef6500" d="
  M 462.58 192.71
  L 457.39 171.98
  A 0.65 0.47 75.4 0 1 457.68 171.24
  L 461.75 170.14
  A 0.60 0.50 75.4 0 1 462.39 170.59
  L 470.90 203.26
  A 0.54 0.51 75.6 0 1 470.54 203.91
  L 466.05 205.09
  A 0.71 0.65 65.6 0 1 465.30 204.77
  L 454.35 187.22
  Q 453.20 185.37 453.75 187.48
  L 458.63 206.26
  A 0.58 0.52 75.0 0 1 458.28 206.95
  L 454.30 208.11
  A 0.55 0.48 75.1 0 1 453.69 207.70
  L 445.22 174.86
  A 0.62 0.59 76.4 0 1 445.66 174.10
  L 450.16 173.08
  A 0.95 0.88 67.9 0 1 451.14 173.54
  L 462.43 192.76
  Q 462.72 193.26 462.58 192.71
  Z"
/>
<rect fill="#ef6500" x="-5.99" y="-2.62" transform="translate(537.42,175.92) rotate(-3.2)" width="11.98" height="5.24" rx="0.35"/>
<rect fill="#ef6500" x="-2.65" y="-17.54" transform="translate(438.10,194.64) rotate(-17.2)" width="5.30" height="35.08" rx="0.26"/>
<path fill="#ef6500" d="
  M 409.64 194.10
  C 405.48 184.06 421.01 177.27 425.13 189.13
  A 0.96 0.85 -22.0 0 1 424.59 190.22
  L 421.56 191.59
  A 0.97 0.91 -21.5 0 1 420.27 191.08
  Q 418.86 186.78 415.64 188.40
  Q 413.63 189.40 414.41 191.51
  C 416.18 196.32 425.55 199.12 428.94 201.56
  C 433.12 204.57 433.61 211.84 429.64 215.08
  C 424.62 219.16 418.29 217.70 415.71 211.44
  A 1.11 0.99 -25.4 0 1 416.26 210.13
  L 418.82 208.81
  A 1.18 1.13 -24.6 0 1 420.44 209.37
  C 423.55 217.20 433.26 207.45 421.22 203.07
  C 416.81 201.47 411.44 198.44 409.64 194.10
  Z"
/>
<path fill="#ef6500" d="
  M 621.31 315.94
  Q 627.50 316.78 643.25 315.50
  C 664.80 313.75 669.86 297.94 684.25 285.51
  C 694.04 277.05 708.18 274.59 718.94 283.31
  C 732.38 294.22 737.38 314.25 738.05 331.27
  A 1.04 1.03 -5.2 0 1 737.15 332.34
  Q 670.61 341.44 607.50 360.76
  Q 597.39 363.86 587.24 366.86
  A 0.72 0.71 -25.5 0 1 586.46 366.59
  C 581.89 360.04 577.31 352.42 576.18 344.78
  C 574.04 330.24 583.71 315.45 599.49 314.87
  Q 610.45 314.46 621.31 315.94
  Z"
/>
<path fill="#ef6500" d="
  M 435.41 718.62
  C 365.67 687.40 311.62 627.39 285.14 556.06
  C 282.15 548.00 279.45 543.19 286.35 537.38
  Q 348.64 484.87 420.40 446.42
  C 514.18 396.16 615.44 359.48 721.15 344.57
  C 725.45 343.96 730.93 342.65 735.75 342.25
  C 744.22 341.55 745.01 346.28 748.10 352.16
  Q 753.42 362.26 758.23 372.61
  A 0.88 0.87 80.3 0 0 758.93 373.11
  Q 765.38 373.70 771.82 374.36
  C 804.98 377.79 837.46 394.88 851.53 426.43
  C 871.38 470.91 845.43 519.78 814.76 551.37
  C 800.91 565.63 784.16 577.16 766.24 587.10
  A 3.91 3.91 -1.1 0 0 764.66 588.74
  Q 762.86 592.24 761.05 596.42
  C 705.55 724.44 560.40 774.58 435.41 718.62
  Z
  M 395.50 677.25
  C 445.74 713.77 507.05 731.28 569.10 723.88
  C 649.48 714.29 717.94 660.43 748.44 585.94
  C 777.81 514.18 772.14 432.27 736.26 363.86
  C 734.92 361.32 733.89 359.16 731.00 359.50
  Q 690.72 364.25 650.08 374.11
  A 0.74 0.73 72.1 0 0 649.58 375.10
  C 677.80 445.20 669.39 534.40 607.05 584.55
  C 564.17 619.05 508.49 620.18 461.33 593.72
  A 0.72 0.72 -65.9 0 0 460.29 594.12
  C 448.91 627.98 426.56 658.40 395.53 676.68
  A 0.34 0.34 48.2 0 0 395.50 677.25
  Z
  M 554.35 477.41
  Q 555.40 477.24 554.90 478.18
  L 538.76 508.48
  A 0.96 0.95 42.8 0 0 538.80 509.44
  C 547.13 522.71 558.04 535.95 572.50 541.75
  C 593.77 550.28 605.80 533.01 607.95 514.44
  C 611.32 485.34 599.90 454.09 582.59 431.14
  C 572.32 417.52 553.19 400.56 535.01 410.66
  C 513.47 422.62 520.43 462.91 525.92 481.45
  A 0.57 0.57 77.5 0 0 526.56 481.86
  L 554.35 477.41
  Z
  M 783.39 503.45
  C 798.38 480.87 801.91 453.12 778.21 434.62
  Q 777.81 434.31 777.91 434.81
  Q 784.61 468.68 782.93 503.30
  Q 782.89 504.20 783.39 503.45
  Z
  M 379.16 569.20
  Q 380.82 568.93 380.03 570.39
  L 365.31 597.63
  A 0.85 0.84 -47.1 0 0 365.34 598.49
  C 373.34 610.75 384.80 624.66 399.00 629.00
  C 412.21 633.04 422.85 624.98 426.69 612.69
  C 430.68 599.88 429.84 585.36 426.74 572.24
  C 425.88 568.60 425.68 566.96 423.56 564.69
  Q 401.75 541.37 387.70 512.20
  Q 386.54 509.78 384.78 508.67
  C 377.87 504.27 368.03 503.89 361.20 508.36
  C 343.95 519.66 347.76 553.26 352.97 569.76
  Q 353.45 571.28 353.82 572.82
  A 0.55 0.53 78.5 0 0 354.43 573.24
  L 379.16 569.20
  Z"
/>
<path fill="#ef6500" d="
  M 297.16 417.10
  C 290.40 412.04 294.30 401.30 302.96 404.36
  C 311.91 407.51 308.90 414.44 312.23 420.92
  Q 313.04 422.48 313.00 424.25
  Q 312.95 426.48 310.95 425.51
  Q 303.58 421.93 297.16 417.10
  Z"
/>
<path fill="#ef6500" d="
  M 359.94 451.05
  Q 366.81 457.26 371.88 464.38
  A 1.04 1.03 -33.4 0 1 371.57 465.86
  Q 320.37 496.77 274.69 535.12
  A 0.39 0.39 -33.4 0 1 274.09 535.00
  C 265.83 518.91 264.74 500.01 280.57 487.91
  A 1.71 1.67 -16.9 0 0 281.23 486.71
  C 281.81 479.83 267.04 462.62 262.36 457.15
  C 253.88 447.25 248.49 430.83 247.00 419.00
  C 246.16 412.29 251.14 406.96 257.90 408.43
  C 268.03 410.62 275.25 421.11 282.94 426.81
  C 290.33 432.30 297.48 437.97 305.56 442.45
  C 311.40 445.69 317.28 445.39 323.60 445.22
  A 1.53 1.52 86.5 0 0 325.07 443.55
  C 323.24 423.69 355.86 447.37 359.94 451.05
  Z"
/>
<path fill="#ef6500" d="
  M 225.72 443.75
  C 219.54 440.30 219.51 424.49 227.66 423.49
  C 232.80 422.86 236.35 429.08 236.68 433.49
  Q 237.00 437.87 239.50 444.50
  C 242.84 453.35 227.66 444.83 225.72 443.75
  Z"
/>
<path fill="#ef6500" d="
  M 839.01 555.11
  Q 838.37 554.98 839.01 554.85
  C 877.49 547.07 890.72 512.89 893.24 477.61
  C 893.26 477.42 893.49 476.85 893.56 477.52
  C 897.25 511.47 908.69 548.29 948.02 554.74
  Q 949.55 554.99 948.02 555.25
  C 909.54 561.62 896.47 598.42 893.76 632.34
  C 893.72 632.88 893.28 632.94 893.24 632.36
  Q 891.77 611.26 883.73 591.76
  Q 871.48 562.05 839.01 555.11
  Z"
/>
<path fill="#ef6500" d="
  M 110.84 568.54
  Q 108.13 568.04 110.85 567.56
  C 149.22 560.78 161.02 523.61 164.44 489.52
  Q 164.50 488.96 164.56 489.52
  C 168.00 523.94 179.66 560.86 219.07 567.68
  Q 220.82 567.98 219.07 568.31
  C 180.22 575.73 167.16 611.67 164.76 646.34
  C 164.72 646.89 164.29 646.93 164.24 646.35
  C 161.30 612.10 149.29 575.73 110.84 568.54
  Z"
/>
<path fill="#ef6500" d="
  M 701.04 533.24
  Q 698.60 533.03 695.51 531.73
  C 688.17 528.65 691.58 517.09 701.33 519.41
  C 707.73 520.93 715.23 522.29 721.66 520.34
  C 726.63 518.84 731.99 521.27 731.90 526.81
  C 731.79 533.54 721.87 534.58 716.87 534.49
  A 1.06 1.05 -80.0 0 0 715.86 535.20
  C 688.18 614.94 623.63 671.53 541.44 689.44
  C 536.47 690.52 527.06 691.40 528.19 682.93
  C 529.01 676.78 537.03 676.76 541.81 675.65
  C 617.04 658.27 674.83 607.12 701.88 534.55
  A 0.98 0.98 -77.8 0 0 701.04 533.24
  Z"
/>
<path fill="#ef6500" d="
  M 926.41 627.75
  Q 925.36 627.51 926.41 627.27
  C 944.35 623.17 950.69 606.93 952.44 590.52
  C 952.51 589.86 952.74 590.41 952.76 590.60
  C 954.07 606.90 960.85 623.27 978.54 627.24
  Q 980.04 627.58 978.53 627.87
  C 960.94 631.25 953.85 648.79 952.67 664.74
  Q 952.64 665.17 952.45 665.13
  A 0.44 0.25 89.0 0 1 952.23 664.75
  C 951.12 648.25 944.21 631.81 926.41 627.75
  Z"
/>
<path fill="#ef6500" d="
  M 79.45 640.86
  Q 77.96 640.57 79.44 640.24
  C 96.90 636.37 104.04 620.01 105.24 603.67
  C 105.28 603.11 105.71 603.06 105.76 603.65
  C 107.05 619.75 113.96 636.59 131.64 640.23
  Q 132.91 640.49 131.65 640.79
  C 113.66 645.06 106.93 661.04 105.76 677.84
  C 105.72 678.37 105.28 678.45 105.24 677.86
  C 104.18 661.76 97.20 644.37 79.45 640.86
  Z"
/>
<path fill="#ef6500" d="
  M 255.16 705.85
  Q 228.31 733.53 198.48 757.97
  Q 189.69 765.17 181.11 772.62
  C 172.81 779.83 162.80 787.49 152.44 777.81
  C 147.36 773.07 137.05 759.52 136.87 751.99
  Q 136.71 745.40 143.94 741.69
  C 153.27 736.89 166.32 727.56 181.07 718.02
  Q 207.23 701.08 230.85 680.07
  A 0.91 0.89 47.9 0 0 230.90 678.79
  L 211.31 657.18
  Q 209.60 655.30 210.10 652.63
  C 212.15 641.49 228.78 626.49 239.75 624.50
  Q 243.31 623.85 245.92 626.57
  Q 278.02 660.03 305.81 702.69
  C 309.66 708.60 308.30 712.46 303.50 717.28
  C 298.22 722.59 285.01 734.24 277.26 729.43
  Q 275.99 728.64 270.64 722.64
  Q 263.20 714.28 255.82 705.87
  A 0.45 0.45 46.7 0 0 255.16 705.85
  Z"
/>
<path fill="#ef6500" d="
  M 862.73 806.64
  C 816.76 810.00 774.82 771.17 771.81 725.83
  C 769.60 692.59 788.27 665.52 819.54 653.35
  C 876.07 631.35 938.96 695.93 927.35 751.80
  C 921.00 782.38 893.26 804.41 862.73 806.64
  Z
  M 838.36 756.67
  C 850.46 764.56 867.20 765.86 877.99 755.45
  C 906.39 728.05 853.45 668.97 823.63 696.54
  C 814.59 704.89 812.77 718.61 816.75 730.00
  C 820.48 740.68 829.06 750.60 838.36 756.67
  Z"
/>
<path fill="#ef6500" d="
  M 296.76 853.96
  L 261.42 833.10
  A 0.99 0.98 35.1 0 0 260.17 833.31
  C 246.09 849.79 231.48 860.74 212.88 840.36
  C 201.46 827.85 213.76 814.09 222.63 805.38
  Q 246.13 782.26 271.58 761.30
  C 287.94 747.83 308.67 734.23 330.01 731.05
  C 351.77 727.81 370.43 741.93 374.00 763.50
  C 376.17 776.63 373.57 791.17 369.55 803.89
  C 359.90 834.41 344.19 861.76 326.81 889.06
  C 319.80 900.08 311.01 905.38 298.06 899.44
  C 273.48 888.16 285.87 869.41 296.95 854.92
  A 0.66 0.65 34.2 0 0 296.76 853.96
  Z
  M 281.79 812.83
  L 310.58 830.00
  A 0.50 0.48 -59.8 0 0 311.25 829.81
  C 314.20 824.50 351.85 755.17 309.69 788.44
  Q 295.13 799.92 281.73 812.29
  A 0.34 0.34 39.4 0 0 281.79 812.83
  Z"
/>
<path fill="#ef6500" d="
  M 726.32 917.82
  C 714.88 918.32 707.46 909.35 700.56 900.69
  Q 678.77 873.32 662.63 844.38
  C 647.40 817.08 630.06 780.75 668.49 761.18
  C 691.47 749.48 719.41 746.05 743.97 754.82
  C 784.11 769.16 799.34 812.50 787.43 851.35
  Q 777.74 882.95 752.95 904.70
  C 745.76 911.00 735.48 917.41 726.32 917.82
  Z
  M 734.80 867.56
  C 751.05 848.52 761.93 805.91 729.33 794.64
  C 721.50 791.93 705.06 789.74 698.33 795.84
  C 692.62 801.03 695.83 811.13 699.06 816.69
  C 709.04 833.83 721.65 850.29 733.60 867.50
  A 0.76 0.76 -42.1 0 0 734.80 867.56
  Z"
/>
<path fill="#ef6500" d="
  M 455.22 823.16
  Q 432.28 817.74 407.54 812.32
  C 396.81 809.97 389.03 800.56 391.77 789.24
  C 393.79 780.88 398.48 771.22 408.00 769.75
  C 412.70 769.02 416.96 770.26 421.71 771.41
  Q 449.99 778.29 473.94 785.06
  C 490.07 789.63 510.79 798.25 508.52 818.75
  C 507.21 830.54 499.56 839.91 491.46 847.97
  C 471.02 868.29 446.73 884.62 422.96 900.78
  Q 421.81 901.56 423.18 901.79
  Q 446.24 905.79 469.70 911.00
  C 474.19 911.99 480.97 913.25 483.77 917.10
  C 490.53 926.37 480.76 945.06 473.06 951.81
  Q 467.16 957.00 459.56 952.94
  C 450.08 947.87 439.65 944.98 427.79 942.64
  Q 398.99 936.95 370.26 930.94
  C 359.96 928.79 361.80 914.02 363.50 906.25
  C 365.57 896.80 368.75 892.76 376.91 886.72
  C 403.76 866.86 430.56 848.11 455.89 825.83
  Q 458.15 823.85 455.22 823.16
  Z"
/>
<path fill="#ef6500" d="
  M 580.75 955.15
  C 526.26 954.99 517.14 888.71 514.29 849.73
  C 513.14 834.10 509.55 803.20 531.75 799.75
  C 546.67 797.43 557.48 802.77 558.65 818.76
  C 559.94 836.40 558.25 906.68 581.59 911.55
  Q 587.12 912.70 594.37 910.82
  C 608.30 907.20 612.06 894.40 612.02 881.13
  C 611.95 860.48 607.91 840.28 604.58 819.99
  C 602.54 807.54 598.59 790.76 612.25 785.75
  C 617.95 783.66 625.88 782.30 631.34 785.15
  C 649.78 794.77 651.63 851.75 652.50 870.75
  C 654.72 919.41 633.81 955.31 580.75 955.15
  Z"
/>
</svg>
